<?xml version="1.0" ?><svg viewBox="0 0 104.3301 100.86721" xmlns="http://www.w3.org/2000/svg"><title/><g data-name="Layer 2" id="Layer_2"><g data-name="Layer 1" id="Layer_1-2"><polygon points="10.416 24.937 10.416 24.937 10.418 24.936 10.416 24.937"/><polygon points="36.716 22.357 36.717 22.358 36.718 22.358 36.716 22.357"/><path d="M27.7749,66.52308a1.00029,1.00029,0,0,0,1.4078.13711l-.00015-.0002a20.31465,20.31465,0,0,1,4.66059-2.82886,15.0557,15.0557,0,0,1,4.10263-1.15148,10.784,10.784,0,0,1,4.58495.3875,13.96453,13.96453,0,0,1,4.46129,2.425,7.45166,7.45166,0,0,1,1.58477,1.745,3.13678,3.13678,0,0,1,.53434,1.71062,3.61,3.61,0,0,1-.78943,2.09827,2.941,2.941,0,0,1-.36387.36672,3.71031,3.71031,0,0,1-2.44249.73517,3.61091,3.61091,0,0,1-1.325-.21994,10.59508,10.59508,0,0,1-1.714-.979,7.84183,7.84183,0,0,0-2.82241-1.093,10.08807,10.08807,0,0,0-6.11492.9784,9.8527,9.8527,0,0,0-1.148.70759,9.25333,9.25333,0,0,0-1.72873,1.60182,8.28446,8.28446,0,0,0-.7345,1.0328l-.00417.00693-.03415.058a1.00013,1.00013,0,1,0,1.72313,1.0158l.03055-.05207a6.38212,6.38212,0,0,1,.55762-.78386,7.27955,7.27955,0,0,1,1.35513-1.25357,7.77841,7.77841,0,0,1,.9227-.56774,8.17638,8.17638,0,0,1,4.82162-.7757,6.76839,6.76839,0,0,1,2.73731,1.21306,7.73351,7.73351,0,0,0,1.449.76272,6.27878,6.27878,0,0,0,5.75915-.85685l.00171-.00128a4.90379,4.90379,0,0,0,.61283-.61839,5.56831,5.56831,0,0,0,1.25054-3.3338,5.12605,5.12605,0,0,0-.83323-2.80517,9.4129,9.4129,0,0,0-2.00781-2.231,15.90823,15.90823,0,0,0-5.13929-2.7944,12.78662,12.78662,0,0,0-5.42777-.46475A20.50977,20.50977,0,0,0,27.912,65.11554.99993.99993,0,0,0,27.7749,66.52308Z"/><polygon points="61.413 20.911 61.414 20.911 61.417 20.914 61.413 20.911"/><path d="M12.547,50.406l-.00019-.00016a4.8626,4.8626,0,0,0,.66589.67132,5.1917,5.1917,0,0,0,4.49606,1.05746,5.12934,5.12934,0,0,0,2.6945-1.71276,5.0606,5.0606,0,0,0,1.07423-2.21616.99984.99984,0,1,0-1.95976-.39761,3.06763,3.06763,0,0,1-.65294,1.33622,3.13728,3.13728,0,0,1-1.63416,1.04845,3.20761,3.20761,0,0,1-2.74027-.65421,2.86241,2.86241,0,0,1-.39228-.39509A1,1,0,1,0,12.547,50.406Z"/><path d="M31.97761,45.17833l-.00019-.00016.0953.08128a5.01422,5.01422,0,0,0,4.80484.86141,5.01944,5.01944,0,0,0,3.21746-3.8127.99994.99994,0,0,0-1.9706-.341,3.01941,3.01941,0,0,1-1.914,2.26823,3.03049,3.03049,0,0,1-2.86-.51461l-.05422-.0463a1,1,0,1,0-1.31859,1.50384Z"/><polygon points="25.849 47.835 25.852 47.83 25.853 47.828 25.849 47.835"/><path d="M25.85191,47.83017A15.69938,15.69938,0,0,0,24.48758,51.022a1,1,0,0,0,1.91471.578l-.00015-.0002a13.686,13.686,0,0,1,.91837-2.23444c.14214.07837.29767.16317.48467.26434.50927.27447,1.17265.62549,1.94784,1.03335a1,1,0,0,0,.93143-1.7698c-.77273-.40661-1.43257-.7558-1.93044-1.02412-.49142-.26385-.84928-.46653-.91957-.5141a1.71447,1.71447,0,0,0-.32767-.17214,1.38806,1.38806,0,0,0-.37282-.08912,1.26323,1.26323,0,0,0-.52678.06381l-.00069-.00184-.0062.00326-.00946.00222.00084.00244a1.28647,1.28647,0,0,0-.55479.39065A1.755,1.755,0,0,0,25.85191,47.83017Z"/><path d="M97.85408,75.746a51.3738,51.3738,0,0,0,5.48667-14.10023,48.814,48.814,0,0,0-1.03046-23.43413A50.799,50.799,0,0,0,92.57082,18.623a49.48288,49.48288,0,0,0-6.78992-6.85883,50.6457,50.6457,0,0,0-12.67824-7.6957C69.53028,2.57278,56.89283-2.57032,42.85331,1.59253a48.48723,48.48723,0,0,0-5.30656,1.99176,33.32833,33.32833,0,0,0-4.13092,2.16006A14.6547,14.6547,0,0,0,29.93051,8.638a5.61569,5.61569,0,0,0-1.45318,3.57783,6.31762,6.31762,0,0,0,.57748,2.48832,6.29306,6.29306,0,0,0,1.675,2.2783,4.5704,4.5704,0,0,0,1.12292.69264,4.518,4.518,0,0,0,2.2449.32862,9.19414,9.19414,0,0,0,3.14612-1.04213c1.01189-.50661,2.013-1.10263,3.01708-1.62086l.0082-.00414a41.107,41.107,0,0,1,14.32325-3.47042c8.48916-.66146,15.31618,3.08054,18.39191,4.78184a40.20441,40.20441,0,0,1,6.50419,4.29663,26.27287,26.27287,0,0,1,6.50614,7.877A24.20472,24.20472,0,0,1,88.157,46.15615a9.02331,9.02331,0,0,1-1.74976.08476,7.73662,7.73662,0,0,1-4.08768-1.34977q-.239-.16678-.46311-.353a8.0377,8.0377,0,0,1-2.84207-5.894,1.57832,1.57832,0,0,1,.331-1.10592,4.6246,4.6246,0,0,1,1.2793-.89551,6.69088,6.69088,0,0,0,1.95075-1.50385,4.5069,4.5069,0,0,0,.43806-.6288,4.05929,4.05929,0,0,0,.503-2.22726,6.94942,6.94942,0,0,0-.43557-2.04852,5.53163,5.53163,0,0,0-.7442-1.45482,3.97776,3.97776,0,0,0-.64289-.6738,4.771,4.771,0,0,0-2.68743-1.048,7.06942,7.06942,0,0,0-3.40186.69165,10.35289,10.35289,0,0,0-3.69405,2.83851,10.81222,10.81222,0,0,0-1.725,2.92614,17.38541,17.38541,0,0,1-3.82852-.08853,8.47378,8.47378,0,0,1-4.1289-1.50458,2.88825,2.88825,0,0,1-.832-1.06934,2.0532,2.0532,0,0,1-.17413-.85116,4.477,4.477,0,0,1,.46865-1.73186,15.71716,15.71716,0,0,0,1.33433-3.322,3.86456,3.86456,0,0,0-.1486-2.06545,4.751,4.751,0,0,0-1.46253-1.96975l-.04559-.03834a5.13819,5.13819,0,0,0-2.15976-1.0984,4.82067,4.82067,0,0,0-3.19038.42361,7.6379,7.6379,0,0,0-2.48069,2.01209,9.11212,9.11212,0,0,0-1.97366,4.12551,8.85039,8.85039,0,0,0,.67676,5.11035A11.16652,11.16652,0,0,0,55.325,35.47053a11.63136,11.63136,0,0,0,1.4455,1.00659,17.6996,17.6996,0,0,0,2.29187,12.8236,16.59217,16.59217,0,0,0-2.1964,6.94005c-.39161-.31106-1.03466-.81728-1.87747-1.51707-.40729-.33766-.86628-.73-1.34418-1.1454a6.35968,6.35968,0,0,0,1.71185-1.31667l.00377-.00416c.09922-.10993.23826-.26055.389-.44213a5.47754,5.47754,0,0,0,.79534-1.236,3.36682,3.36682,0,0,0,.29533-1.82581,3.2243,3.2243,0,0,0-.51035-1.35313,4.289,4.289,0,0,0-.85527-.94083,7.06367,7.06367,0,0,0-2.01989-1.12887,6.1813,6.1813,0,0,0-2.6507-.34477A9.22624,9.22624,0,0,0,46.702,46.46572c-.42247-.53568-.8295-1.07772-1.206-1.62632-.06828-.0993-.13043-.19184-.19673-.28894a5.48068,5.48068,0,0,1,2.06992-1.03972,1.0003,1.0003,0,0,0-.49176-1.93921,7.48536,7.48536,0,0,0-2.685,1.31919c-.19777-.30488-.38644-.60047-.563-.88387a5.297,5.297,0,0,1,2.24417-1.62943.99979.99979,0,1,0-.69858-1.87358,7.1979,7.1979,0,0,0-2.61063,1.69585c-.133-.24154-.26087-.47883-.3786-.70813A20.99829,20.99829,0,0,1,40.581,35.39743c-.97834-3.46428-1.48065-7.1078-2.19944-10.76846a4.89106,4.89106,0,0,0-.265-.89614,2.592,2.592,0,0,0-.70763-1.02309,1.71514,1.71514,0,0,0-.69223-.35221,1.6129,1.6129,0,0,0-.5977-.03079,2.23158,2.23158,0,0,0-.99777.42655,5.71667,5.71667,0,0,0-1.03692,1.01062c-.10372.1249-.21075.25991-.32135.40647a16.3754,16.3754,0,0,0-2.74223,6.01372c-2.5391.17164-5.18709.41366-7.94273.75321-2.00513.2467-3.93337.53264-5.80237.84049a15.58725,15.58725,0,0,1-1.72887-2.80886c-.28737-.61009-.4946-1.16727-.7516-1.71151a4.31358,4.31358,0,0,0-1.11749-1.53765,3.44441,3.44441,0,0,0-.498-.34381,4.06783,4.06783,0,0,0-1.43712-.48166,3.61791,3.61791,0,0,0-1.32669.04266,3.03957,3.03957,0,0,0-1.61933,1.068A7.79788,7.79788,0,0,0,7.48689,28.6828a30.00808,30.00808,0,0,0-.98094,5.32c-.20621,1.88625-.32041,3.78781-.41124,5.37423a74.57851,74.57851,0,0,0,.12544,13.73841,21.17181,21.17181,0,0,0-5.64875,1.75A1.00032,1.00032,0,0,0,1.42891,56.673a19.12539,19.12539,0,0,1,5.02968-1.57122c.06777.52182.13913,1.05383.21463,1.5927a8.32784,8.32784,0,0,0-4.50741,1.42378,1.00043,1.00043,0,1,0,1.12295,1.656,6.40124,6.40124,0,0,1,3.68991-1.06261A44.5825,44.5825,0,0,0,10.82742,71.2563,49.00727,49.00727,0,0,0,22.68893,86.6401c.61519.55735,1.22363,1.08346,1.8196,1.57835a54.2599,54.2599,0,0,0,8.41011,5.7653c4.28387,2.36086,14.89306,8.22181,29.06747,6.60562,15.48574-1.768,25.08007-11.27544,27.86313-14.108.528-.53914,1.45524-1.51056,2.58789-2.87493A53.80666,53.80666,0,0,0,97.85408,75.746ZM60.83057,46.738c-.18756.22586-.35432.468-.53082.70267a15.72519,15.72519,0,0,1-1.44348-11.22292,1.001,1.001,0,0,0-.51336-1.134,9.56847,9.56847,0,0,1-1.74029-1.15183,9.17719,9.17719,0,0,1-2.53336-3.29531,6.84866,6.84866,0,0,1-.53471-3.96183,7.1576,7.1576,0,0,1,1.54119-3.187,5.04412,5.04412,0,0,1,2.452-1.72909,2.59138,2.59138,0,0,1,1.24313-.03262,3.13979,3.13979,0,0,1,1.31961.68548l.02726.023.00372.00317a3.16128,3.16128,0,0,1,.7693.89341,1.83684,1.83684,0,0,1,.145,1.36167,20.04124,20.04124,0,0,1-1.24534,2.93011,6.81533,6.81533,0,0,0-.53792,1.8703,4.12808,4.12808,0,0,0,.30911,2.15534,4.88947,4.88947,0,0,0,1.38878,1.81092,10.33187,10.33187,0,0,0,5.13325,1.94716,19.58855,19.58855,0,0,0,3.64806.14534c-.0165.12918-.03291.259-.04961.39872-.12886,1.08572-.25343,2.4361-.30718,3.57507-.02576.55648-.03466,1.056-.01638,1.47687A18.13745,18.13745,0,0,0,60.83057,46.738Zm-11.5613.64918a6.12043,6.12043,0,0,1,1.697-.408,4.178,4.178,0,0,1,1.79806.2289,5.14921,5.14921,0,0,1,1.43194.79018,2.30729,2.30729,0,0,1,.4597.49772,1.21858,1.21858,0,0,1,.20032.51621,1.36854,1.36854,0,0,1-.13617.74676,3.52383,3.52383,0,0,1-.50967.77886c-.11082.13345-.2233.25592-.3299.37359a4.49972,4.49972,0,0,1-1.86588,1.20368,55.3831,55.3831,0,0,1-4.02-4.09989A8.37259,8.37259,0,0,1,49.26927,47.38714Zm39.1518,37.69421c-2.69221,2.74642-11.90492,11.84247-26.66134,13.521-13.51244,1.53786-23.63878-4.03288-27.87545-6.36994a52.26961,52.26961,0,0,1-8.098-5.55257c-.57475-.47727-1.16141-.98451-1.75432-1.52168A47.011,47.011,0,0,1,12.62905,70.38794C9.62277,64.14516,8.95631,58.83669,8.32567,53.9448a70.24961,70.24961,0,0,1-.23421-14.45351c.12011-2.10625.28181-4.7292.63259-7.06241a22.3511,22.3511,0,0,1,.67476-3.159,5.96258,5.96258,0,0,1,.93623-1.98731,1.06268,1.06268,0,0,1,.54647-.4005l.00176-.0006a1.68541,1.68541,0,0,1,.58-.00681,2.08206,2.08206,0,0,1,.7269.23939,1.44044,1.44044,0,0,1,.20981.1444,2.36743,2.36743,0,0,1,.58841.85672c.204.42688.42322,1.01056.74783,1.70345a17.51342,17.51342,0,0,0,2.333,3.67345.99663.99663,0,0,0,.94026.35238c2.02208-.34162,4.12731-.65307,6.31311-.922,2.97961-.367,5.83818-.62335,8.56014-.79356a.99854.99854,0,0,0,.91568-.79048,14.67852,14.67852,0,0,1,2.5598-5.96179c.09441-.12478.18232-.236.26464-.33512a4.0071,4.0071,0,0,1,.60844-.61806,1.004,1.004,0,0,1,.04862.10234,2.99662,2.99662,0,0,1,.13972.491c.70607,3.58234,1.21067,7.28044,2.23642,10.92341a23.03644,23.03644,0,0,0,1.75048,4.46508,45.27754,45.27754,0,0,0,2.62741,4.36368.97514.97514,0,0,0,.254.40231l.03511.03034c.16916.25067.343.50641.52484.77086a48.06007,48.06007,0,0,0,7.05034,7.83233.98877.98877,0,0,0,.3254.2987c.912.8247,1.76592,1.55892,2.48722,2.15892,1.04521.868,1.83445,1.47945,2.1279,1.71726a.98344.98344,0,0,0,.94781.15182,18.11259,18.11259,0,0,0,4.31775,11.55373,1,1,0,0,0,1.51122-1.31008l-.00019-.00016a16.14235,16.14235,0,0,1-3.12083-15.15008A15.581,15.581,0,0,1,62.369,48.0155,16.0507,16.0507,0,0,1,70.7976,42.665a.89359.89359,0,0,0,.104-.04877.9852.9852,0,0,0,.46721-1.51077c-.00657-.07-.01309-.15352-.01578-.25309a32.93808,32.93808,0,0,1,.20431-3.64875c.06667-.66842.1413-1.29905.2097-1.78688.034-.24354.06679-.45189.09464-.605l.03606-.181.01073-.04425a8.805,8.805,0,0,1,1.54049-2.7211,8.36085,8.36085,0,0,1,2.97687-2.29243,5.10623,5.10623,0,0,1,2.43351-.52065,2.788,2.788,0,0,1,1.55679.59206,1.97281,1.97281,0,0,1,.32009.33452,3.61409,3.61409,0,0,1,.46464.93737,4.98742,4.98742,0,0,1,.31738,1.45176,2.06537,2.06537,0,0,1-.23642,1.1415,2.55465,2.55465,0,0,1-.24488.35184,4.83239,4.83239,0,0,1-1.40264,1.044,6.26024,6.26024,0,0,0-1.82742,1.35532A3.59425,3.59425,0,0,0,77.0145,38.646a10.0026,10.0026,0,0,0,3.56427,7.43078q.28759.23893.59659.45478a9.73806,9.73806,0,0,0,5.13371,1.707,10.94238,10.94238,0,0,0,2.982-.2575.9904.9904,0,0,0,.74907-1.09773A26.22953,26.22953,0,0,0,87.76052,27.8827a28.27346,28.27346,0,0,0-6.99445-8.4767,42.16739,42.16739,0,0,0-6.816-4.50934c-3.11749-1.71519-10.35288-5.732-19.51245-5.02449-9.3313.7248-15.0113,3.64933-15.09514,3.69182-1.42783.74075-2.73645,1.54852-3.88186,2.018a5.57864,5.57864,0,0,1-1.557.4312,2.50943,2.50943,0,0,1-1.26531-.17723,2.57544,2.57544,0,0,1-.63083-.39215,4.32,4.32,0,0,1-1.126-1.5538,4.37649,4.37649,0,0,1-.40433-1.67763A3.64583,3.64583,0,0,1,31.469,9.91553a12.756,12.756,0,0,1,3.00983-2.477,42.20964,42.20964,0,0,1,8.94337-3.92864c13.26821-3.95437,25.44669.93969,28.90492,2.402A48.64973,48.64973,0,0,1,84.5032,13.30283a47.47992,47.47992,0,0,1,6.51572,6.58179,48.7915,48.7915,0,0,1,9.35929,18.84381,46.81608,46.81608,0,0,1,1.00653,22.50032A49.3984,49.3984,0,0,1,96.113,74.76216a51.8198,51.8198,0,0,1-5.21431,7.56678C89.80914,83.6406,88.92516,84.56679,88.42107,85.08135Z"/></g></g></svg>