<?xml version="1.0" ?><svg viewBox="0 0 128 128" xmlns="http://www.w3.org/2000/svg"><defs><style>.cls-1{fill:#b2b2b2;}.cls-2{fill:#898989;}.cls-3{fill:#d1d1d1;}.cls-4{fill:#ddd;}.cls-5{opacity:0.3;}.cls-6{fill:#fff;}.cls-7{fill:#efefef;}.cls-8{fill:#f8b544;}.cls-9{fill:#f2991d;}.cls-10{fill:#fdd655;}.cls-11{fill:#fff1b8;}.cls-12{fill:#585c67;}</style></defs><title/><g id="Laptop"><g data-name="Laptop" id="Laptop-2"><rect class="cls-1" height="58.3" width="91.32" x="18.34" y="26.38"/><rect class="cls-1" height="58.3" width="91.32" x="18.34" y="26.38"/><rect class="cls-1" height="52.89" width="85.91" x="21.04" y="29.09"/><path class="cls-2" d="M107,55.86V75.12a1.34,1.34,0,0,0,1.35,1.35h0a1.35,1.35,0,0,0,1.35-1.35V55.86a1.35,1.35,0,0,0-1.35-1.35h0A1.34,1.34,0,0,0,107,55.86Z"/><rect class="cls-1" height="52.89" width="85.91" x="21.04" y="29.09"/><path class="cls-3" d="M84.77,30.44v.89h17.54a1.34,1.34,0,0,1,1.35,1.35V47.16h1.51V32.59A2.14,2.14,0,0,0,103,30.44Z"/><path class="cls-1" d="M104.1,32.68V78.39a1.35,1.35,0,0,1-1.35,1.35H25.25a1.35,1.35,0,0,1-1.35-1.35V32.68a1.34,1.34,0,0,1,1.35-1.35h77.5A1.34,1.34,0,0,1,104.1,32.68Z"/><path class="cls-3" d="M18.34,27.74V43.59a1.36,1.36,0,0,0,1.35,1.35h0A1.35,1.35,0,0,0,21,43.59V30.44a1.35,1.35,0,0,1,1.35-1.35H74a1.35,1.35,0,0,0,1.35-1.35h0A1.34,1.34,0,0,0,74,26.39H19.69A1.35,1.35,0,0,0,18.34,27.74Z"/><rect class="cls-3" height="45.71" width="77.49" x="25.25" y="32.68"/><rect class="cls-4" height="17.5" width="17.5" x="31.09" y="38.42"/><rect class="cls-4" height="17.5" width="17.5" x="55.25" y="38.42"/><rect class="cls-4" height="17.5" width="17.5" x="79.42" y="38.42"/><g class="cls-5"><polygon class="cls-6" points="52.23 32.68 25.84 78.39 25.25 78.39 25.25 64.38 43.56 32.68 52.23 32.68"/><polygon class="cls-6" points="102.75 32.68 102.75 35.58 78.03 78.39 69.36 78.39 95.75 32.68 102.75 32.68"/><polygon class="cls-6" points="76.58 32.68 50.2 78.39 34.91 78.39 61.3 32.68 76.58 32.68"/></g><path class="cls-3" d="M118,84.68a13.66,13.66,0,0,1-13.66,13.66H23.66A13.64,13.64,0,0,1,10,84.68Z"/><path class="cls-7" d="M96.87,86.42h0a1.74,1.74,0,0,1-1.74,1.74H40.48a1.74,1.74,0,0,1-1.74-1.74h0a1.74,1.74,0,0,1,1.74-1.74H95.13A1.74,1.74,0,0,1,96.87,86.42Z"/><path class="cls-1" d="M118,84.68a13.66,13.66,0,0,1-13.66,13.66H23.66A13.64,13.64,0,0,1,10,84.68H24a8.67,8.67,0,0,0,8.66,8.67H94.82a8.67,8.67,0,0,0,8.67-8.67H118Z"/><path class="cls-2" d="M78.24,84.68h0a4.83,4.83,0,0,1-4.83,4.83H54.59a4.83,4.83,0,0,1-4.83-4.83H78.24Z"/></g><g id="Cat"><path class="cls-8" d="M26.69,74.15V84.67h-7a1,1,0,0,1-.24,0V74.15a3.62,3.62,0,0,1,7.24,0Z"/><path class="cls-8" d="M29.74,75.84v8.83h-10a1,1,0,0,1-.24,0,4.41,4.41,0,0,1,0-8.8H29.74Z"/><path class="cls-9" d="M29.74,75.84v8.83h-10a1,1,0,0,1-.24,0,3.86,3.86,0,0,1-1-.17L26,75.84Z"/><path class="cls-8" d="M88.42,84.68C87,71,73.1,60.27,56.14,60.27S25.27,71,23.86,84.68l.31,25.67H32V97.92a3.52,3.52,0,0,1,3.54-3.47A3.46,3.46,0,0,0,38.93,91V88.36a3.68,3.68,0,0,1,3.68-3.68H53.77a3.69,3.69,0,0,1,3.69,3.68c0,4.71,0,12.26,0,12.26h8.39s0-7.55,0-12.26a3.68,3.68,0,0,1,3.68-3.68Z"/><path class="cls-10" d="M56.14,60.27c-10,0-19,3.74-24.91,9.63a1.36,1.36,0,0,0-.4,1h0a1.36,1.36,0,0,0,2.31,1C38.62,66.44,47,63,56.14,63a35.15,35.15,0,0,1,12.74,2.35,1.35,1.35,0,0,0,1.84-1.27h0a1.36,1.36,0,0,0-.86-1.27A38,38,0,0,0,56.14,60.27Z"/><path class="cls-9" d="M86.83,78.39h-3A19.41,19.41,0,0,1,85.2,82H69.51a6.2,6.2,0,0,0-2.8.65A6,6,0,0,0,65,83.86a6.23,6.23,0,0,0-1.87,4.51l0,9.55h-1.5v2.7h4.2s0-7.56,0-12.25a3.72,3.72,0,0,1,3.49-3.69H88.42A22.8,22.8,0,0,0,86.83,78.39Z"/><path class="cls-9" d="M37.84,86h-.25a1.24,1.24,0,0,0-1.2.94,6,6,0,0,0-.16,1.43V91a.79.79,0,0,1-.76.77,6.17,6.17,0,0,0-6.18,6.16v8.5a1.23,1.23,0,0,1-2.46,0l0-4.15A1.35,1.35,0,0,0,25.43,101h0a1.35,1.35,0,0,0-1.35,1.36l.08,6.82a1.23,1.23,0,0,0,1.23,1.21h4A2.58,2.58,0,0,0,32,107.77v-7.63a6.09,6.09,0,0,1,4.44-5.82A3.48,3.48,0,0,0,38.93,91V88.37a3.66,3.66,0,0,1,.11-.88A1.23,1.23,0,0,0,37.84,86Z"/><polygon class="cls-8" points="89.05 71.44 98.7 62.28 96.93 75.84 89.05 71.44"/><polygon class="cls-8" points="96.13 67.39 95.16 74.85 90.83 72.44 96.13 67.39"/><polygon class="cls-9" points="96.13 67.39 95.16 74.85 94.36 80.94 86.48 76.55 90.83 72.44 96.13 67.39"/><polygon class="cls-8" points="83.08 70.01 74.73 75.84 74.06 73.13 73.33 70.16 71.14 61.35 78.77 66.88 81.46 68.83 83.08 70.01"/><polygon class="cls-8" points="80.89 71.53 76.91 74.33 75.19 67.39 80.89 71.53"/><polygon class="cls-9" points="87.11 76.06 78.77 81.89 76.91 74.33 75.19 67.39 80.89 71.53 87.11 76.06"/><path class="cls-9" d="M74.06,73.13A16.29,16.29,0,0,0,69.53,82h0a6.2,6.2,0,0,0-2.8.65,19,19,0,0,1,6.62-12.47Z"/><path class="cls-8" d="M102.14,84.68H69.31a17.16,17.16,0,0,1,.22-2.7A16.42,16.42,0,0,1,81.46,68.83a15.81,15.81,0,0,1,4.26-.56A16.41,16.41,0,0,1,102.14,84.68Z"/><path class="cls-10" d="M95.86,71.78a9.69,9.69,0,0,1-19.36-.46,1.62,1.62,0,0,1,0-.22,16.4,16.4,0,0,1,19.35.68Z"/><path class="cls-11" d="M85.72,68.27a16.29,16.29,0,0,0-3.91.47,1.35,1.35,0,0,0-1.06,1.31v0a1.35,1.35,0,0,0,1.69,1.3,13.39,13.39,0,0,1,3.28-.4,13.78,13.78,0,0,1,4.21.65,1.35,1.35,0,0,0,1.8-1.26h0a1.33,1.33,0,0,0-.89-1.27A16.06,16.06,0,0,0,85.72,68.27Z"/><path class="cls-12" d="M80.6,78.36a2.52,2.52,0,0,1-2.52-2.52.68.68,0,0,1,.68-.68.67.67,0,0,1,.67.68,1.17,1.17,0,0,0,2.34,0,.68.68,0,1,1,1.35,0A2.52,2.52,0,0,1,80.6,78.36Z"/><path class="cls-12" d="M90.89,78.36a2.52,2.52,0,0,1-2.52-2.52.68.68,0,1,1,1.35,0,1.17,1.17,0,1,0,2.34,0,.68.68,0,1,1,1.35,0A2.52,2.52,0,0,1,90.89,78.36Z"/><path class="cls-12" d="M86,81.82a1.14,1.14,0,1,1,1.14-1.13A1.14,1.14,0,0,1,86,81.82Zm0-1.35a.21.21,0,0,0-.21.22c0,.23.43.23.43,0A.22.22,0,0,0,86,80.47Z"/><path class="cls-3" d="M67,100.94a5.36,5.36,0,1,0-5.36,5.37A5.36,5.36,0,0,0,67,100.94Z"/><path class="cls-7" d="M64,97a5.36,5.36,0,0,1-5.36,5.36,5.15,5.15,0,0,1-2.28-.51,4.27,4.27,0,0,1-.08-.89,5.35,5.35,0,0,1,5.36-5.36,5.15,5.15,0,0,1,2.28.51A5.35,5.35,0,0,1,64,97Z"/><path class="cls-3" d="M33.31,111.61A5.36,5.36,0,1,0,28,117,5.36,5.36,0,0,0,33.31,111.61Z"/><path class="cls-7" d="M30.17,109a5.36,5.36,0,0,1-5.36,5.36,5.28,5.28,0,0,1-1.59-.24A5.36,5.36,0,0,1,28,106.25a5.25,5.25,0,0,1,1.6.25A5.22,5.22,0,0,1,30.17,109Z"/></g></g></svg>