<?xml version="1.0" ?><svg data-name="Layer 1" height="128" id="Layer_1" viewBox="0 0 128 128" width="128" xmlns="http://www.w3.org/2000/svg"><title/><path d="M27.47,73l17.41,17.4h22l26.82,26.82V86.2h18.13l.93-11.67,13.75-9.24V44.6l-5.82-17.12L73.77,10.74h-26L14.51,24,1.5,44.64,11.09,73ZM4.38,47,30.92,63.1a4.94,4.94,0,0,0,.43,4.45L27.5,71.07h-15ZM124.53,63.43,99.79,55.69a8.78,8.78,0,0,0,.15-1.56,8.35,8.35,0,0,0-1.36-4.57l6.09-5a6.77,6.77,0,0,0,10.65-2l9.21,3ZM76.24,75.85a4.11,4.11,0,0,0-.58-1.12L86.91,61.2a8.39,8.39,0,0,0,9.89-.51l12.77,12.48ZM26.15,38.12A2.15,2.15,0,1,1,24,40.27,2.15,2.15,0,0,1,26.15,38.12Zm49.34-11.3A2.15,2.15,0,1,1,73.34,29,2.15,2.15,0,0,1,75.49,26.82ZM79,31.09l23.52,7.35a7.45,7.45,0,0,0-.09,1.06,6.84,6.84,0,0,0,1,3.53l-6.08,5a8.37,8.37,0,0,0-9.49-1.5L78.46,31.8A3.75,3.75,0,0,0,79,31.09Zm35.07,8.41a4.84,4.84,0,1,1-4.84-4.83A4.84,4.84,0,0,1,114.06,39.5Zm-39.92,34A4.1,4.1,0,0,0,72.36,73,4,4,0,0,0,71,73.3L60.74,58a5.43,5.43,0,0,0,1.55-2.89H83.13a8.43,8.43,0,0,0,2.27,4.82ZM72.36,79.3a2.15,2.15,0,1,1,2.14-2.14A2.14,2.14,0,0,1,72.36,79.3ZM40.89,64.88a5.38,5.38,0,0,0-.21-1.4l12-6.07A5.4,5.4,0,0,0,57,59.55a5.29,5.29,0,0,0,2.14-.45L69.33,74.4a4.06,4.06,0,0,0-1.09,2.76,4.78,4.78,0,0,0,.08.75L45.82,88.13l-7.34-18.9A5.17,5.17,0,0,0,40.89,64.88ZM30.26,40.34l41.57-9.53a3.68,3.68,0,0,0,.51.77l-13,17.69A5.35,5.35,0,0,0,57,48.72a5.41,5.41,0,0,0-4.45,2.33L30.2,41A3.71,3.71,0,0,0,30.26,40.34ZM57,57.58a3.45,3.45,0,1,1,3.45-3.45A3.46,3.46,0,0,1,57,57.58Zm26.16-4.43H62.29a5.4,5.4,0,0,0-1.38-2.72l13-17.66a4.16,4.16,0,0,0,1.58.31,4,4,0,0,0,1.3-.23L86.18,47.6A8.41,8.41,0,0,0,83.13,53.15ZM71.38,28.9,29.81,38.42a4.1,4.1,0,0,0-.46-.71L48.22,13,71.6,27.69A4,4,0,0,0,71.38,28.9Zm-42,13.9L51.72,52.85a5.41,5.41,0,0,0-.16,1.28,5.55,5.55,0,0,0,.22,1.53l-12,6.07a5.15,5.15,0,0,0-4-2,4.63,4.63,0,0,0-.92.1l-6.3-16.19A4.23,4.23,0,0,0,29.38,42.8Zm6.36,18.89a3.19,3.19,0,1,1-3.19,3.19A3.19,3.19,0,0,1,35.74,61.69ZM32.68,69a5.1,5.1,0,0,0,3.06,1,5.5,5.5,0,0,0,.91-.09l6,15.52L29.3,72.09ZM69.15,79.7a4,4,0,0,0,.78.76l-3.31,8H49.83Zm2.6,1.51a4.07,4.07,0,0,0,.61.06,4.33,4.33,0,0,0,1-.14l15.27,28.31L68.44,89.23ZM91.5,60.6A6.47,6.47,0,1,1,98,54.13,6.47,6.47,0,0,1,91.5,60.6ZM113.13,34a6.77,6.77,0,0,0-10,2.61L79.58,29.22c0-.09,0-.17,0-.25A4.11,4.11,0,0,0,76,24.91L74.75,13.18l43.4,15.48Zm-39-8.83a4,4,0,0,0-1.45.9L51.4,12.71H72.72ZM27.8,36.5a4.13,4.13,0,0,0-1.65-.35,4,4,0,0,0-1.5.3l-8-11.24L45,14Zm-4.75,1.09a4.1,4.1,0,0,0,3.1,6.8,4.52,4.52,0,0,0,.53-.06L33,60.53a5.27,5.27,0,0,0-1.05.89l-28-17L15.22,26.53ZM91.72,84.23V111L75.11,80.19a4,4,0,0,0,1.29-2.38l34.33-2.76L110,84.23Zm20.2-11.51L98.17,59.28a8.27,8.27,0,0,0,1-1.71l24.07,7.52Zm12-29.49-8-2.6a6.88,6.88,0,0,0,.1-1.13,6.79,6.79,0,0,0-1.46-4.2l4.93-5.2Z"/></svg>