<?xml version="1.0" ?><svg id="Layer_1" style="enable-background:new 0 0 100 100;" version="1.1" viewBox="0 0 100 100" xml:space="preserve" xmlns="http://www.w3.org/2000/svg" xmlns:xlink="http://www.w3.org/1999/xlink"><path d="M83.621,13.977H16.378c-4.414,0-8.005,3.591-8.005,8.005v38.425v4.803c0,4.414,3.592,8.005,8.005,8.005H42.43  c0.254,1.05,0.254,2.152,0,3.201h-3.637c-4.414,0-8.005,3.591-8.005,8.006c0,0.884,0.717,1.601,1.601,1.601h35.223  c0.884,0,1.601-0.717,1.601-1.601c0-4.414-3.591-8.006-8.005-8.006H57.57c-0.254-1.05-0.254-2.152,0-3.201h26.051  c4.414,0,8.005-3.591,8.005-8.005v-4.803V21.982C91.627,17.568,88.035,13.977,83.621,13.977z M88.425,65.21  c0,2.648-2.154,4.803-4.803,4.803H56.404H43.596H16.378c-2.649,0-4.803-2.155-4.803-4.803v-3.202h76.849V65.21z M54.299,76.417H45.7  c0.17-1.059,0.17-2.143,0-3.201h8.599C54.129,74.274,54.129,75.358,54.299,76.417z M34.264,82.822  c0.66-1.864,2.441-3.202,4.529-3.202h4.803h12.808h4.803c2.087,0,3.868,1.338,4.529,3.202H34.264z M11.575,21.982  c0-2.649,2.154-4.803,4.803-4.803h67.243c2.649,0,4.803,2.154,4.803,4.803v36.824H11.575V21.982z M64.499,36.214  c0.183-0.058,0.358-0.13,0.528-0.215c1.184-0.591,2.048-1.795,2.749-3.227c0.999,2.043,2.33,3.62,4.448,3.62  c2.118,0,3.448-1.577,4.448-3.62c1,2.043,2.33,3.62,4.448,3.62c0.884,0,1.601-0.717,1.601-1.601c0-0.884-0.717-1.601-1.601-1.601  c-0.999,0-2.022-2.716-2.753-4.803c0.731-2.087,1.754-4.803,2.753-4.803c0.884,0,1.601-0.717,1.601-1.601  c0-0.884-0.717-1.601-1.601-1.601c-2.118,0-3.449,1.577-4.448,3.619c-1-2.042-2.33-3.619-4.448-3.619  c-0.421,0-0.81,0.062-1.172,0.178c-0.183,0.058-0.359,0.13-0.527,0.214c-1.184,0.591-2.048,1.795-2.749,3.227  c-1-2.042-2.33-3.619-4.448-3.619c-2.135,0-3.445,1.536-4.445,3.598c-0.999-2.062-2.31-3.598-4.445-3.598  c-2.138,0-3.45,1.541-4.45,3.608c-0.999-2.037-2.329-3.608-4.442-3.608c-2.135,0-3.445,1.536-4.444,3.598  c-1-2.062-2.31-3.598-4.445-3.598c-2.135,0-3.444,1.536-4.444,3.596c-1-2.061-2.31-3.596-4.444-3.596  c-2.134,0-3.444,1.536-4.444,3.597c-0.999-2.061-2.309-3.597-4.443-3.597c-0.884,0-1.601,0.717-1.601,1.601  c0,0.884,0.717,1.601,1.601,1.601c0.997,0,2.018,2.716,2.748,4.803c-0.391,1.118-0.866,2.413-1.376,3.379  c-0.806-0.61-1.806-0.977-2.892-0.977c-2.649,0-4.803,2.155-4.803,4.803c0,2.087,1.34,3.861,3.202,4.523v7.485  c0,0.884,0.717,1.601,1.601,1.601h3.921c0.884,0,1.601-0.717,1.601-1.601c0-0.884-0.717-1.602-1.601-1.602h-2.32v-5.883  c1.862-0.662,3.202-2.436,3.202-4.523c0-0.279-0.029-0.551-0.075-0.817c0.468-0.56,0.873-1.233,1.235-1.979  c0.999,2.061,2.309,3.597,4.444,3.597c2.135,0,3.445-1.536,4.444-3.597c0.999,2.061,2.309,3.597,4.444,3.597  c2.135,0,3.445-1.536,4.445-3.598c0.999,2.062,2.309,3.598,4.444,3.598c2.114,0,3.444-1.571,4.442-3.609  c1.001,2.067,2.312,3.609,4.45,3.609c2.136,0,3.446-1.536,4.445-3.598c1,2.062,2.31,3.598,4.445,3.598  C63.748,36.392,64.137,36.329,64.499,36.214z M72.224,23.583c0.999,0,2.021,2.716,2.752,4.803c-0.731,2.087-1.754,4.803-2.752,4.803  c-0.999,0-2.022-2.716-2.753-4.803C70.202,26.299,71.224,23.583,72.224,23.583z M18.961,35.591c0,0.097-0.012,0.19-0.029,0.283  c-0.032,0.181-0.098,0.349-0.187,0.504c-0.276,0.484-0.79,0.814-1.385,0.814c-0.786,0-1.438-0.57-1.573-1.318  c-0.016-0.092-0.029-0.186-0.029-0.283c0-0.883,0.718-1.601,1.601-1.601c0.046,0,0.088,0.01,0.134,0.014  C18.313,34.073,18.961,34.754,18.961,35.591z M27.767,33.189c-0.997,0-2.018-2.716-2.748-4.803c0.73-2.087,1.751-4.803,2.748-4.803  c0.997,0,2.018,2.716,2.749,4.803C29.785,30.474,28.764,33.189,27.767,33.189z M36.655,33.189c-0.997,0-2.019-2.716-2.748-4.803  c0.73-2.087,1.751-4.803,2.748-4.803c0.998,0,2.018,2.716,2.75,4.803C38.673,30.473,37.652,33.189,36.655,33.189z M45.544,33.189  c-0.997,0-2.018-2.716-2.749-4.803c0.731-2.087,1.752-4.803,2.749-4.803c0.998,0,2.021,2.716,2.751,4.803  C47.565,30.473,46.543,33.189,45.544,33.189z M54.437,33.189c-0.997,0-2.019-2.716-2.75-4.803c0.731-2.087,1.753-4.803,2.75-4.803  c0.998,0,2.019,2.716,2.749,4.803C56.456,30.473,55.435,33.189,54.437,33.189z M63.327,23.583c0.999,0,2.022,2.716,2.753,4.803  c-0.731,2.087-1.753,4.803-2.753,4.803c-0.997,0-2.019-2.716-2.749-4.803C61.308,26.299,62.33,23.583,63.327,23.583z M59.933,41.194  c0,0.884-0.717,1.602-1.601,1.602H55.93v11.207c0,0.884-0.717,1.601-1.601,1.601c-0.884,0-1.6-0.717-1.6-1.601V42.796h-2.402  c-0.884,0-1.601-0.717-1.601-1.602c0-0.884,0.717-1.6,1.601-1.6h4.002h4.003C59.216,39.594,59.933,40.31,59.933,41.194z   M29.286,44.396V50.8c0,0.883,0.719,1.601,1.601,1.601c0.883,0,1.601-0.718,1.601-1.601c0-0.884,0.717-1.601,1.601-1.601  c0.884,0,1.601,0.717,1.601,1.601c0,2.649-2.154,4.803-4.803,4.803c-2.648,0-4.803-2.154-4.803-4.803v-6.404  c0-2.648,2.154-4.803,4.803-4.803c2.649,0,4.803,2.154,4.803,4.803c0,0.884-0.717,1.601-1.601,1.601  c-0.884,0-1.601-0.717-1.601-1.601c0-0.883-0.718-1.601-1.601-1.601C30.005,42.796,29.286,43.514,29.286,44.396z M45.224,40.717  c-0.012-0.039-0.032-0.072-0.047-0.109c-0.023-0.058-0.044-0.116-0.072-0.17c-0.025-0.046-0.058-0.089-0.087-0.132  c-0.029-0.043-0.055-0.088-0.087-0.126c-0.031-0.037-0.067-0.069-0.101-0.104c-0.04-0.04-0.079-0.083-0.123-0.118  c-0.032-0.026-0.069-0.047-0.103-0.071c-0.052-0.036-0.102-0.073-0.157-0.102c-0.04-0.022-0.086-0.037-0.129-0.055  c-0.049-0.021-0.094-0.046-0.146-0.062c-0.005-0.002-0.01-0.002-0.015-0.003c-0.047-0.014-0.094-0.019-0.141-0.029  c-0.056-0.012-0.111-0.028-0.168-0.033c-0.003,0-0.005,0-0.008,0c-0.101-0.009-0.202-0.01-0.305,0.001  c-0.015,0.001-0.029,0.007-0.044,0.009c-0.088,0.011-0.176,0.027-0.264,0.054c-0.003,0.001-0.007,0.001-0.01,0.002  c-0.038,0.011-0.07,0.031-0.106,0.045c-0.058,0.023-0.118,0.045-0.172,0.073c-0.048,0.026-0.092,0.059-0.138,0.09  c-0.041,0.028-0.084,0.052-0.121,0.083c-0.042,0.034-0.078,0.074-0.116,0.113c-0.035,0.036-0.073,0.069-0.105,0.108  c-0.032,0.04-0.059,0.085-0.088,0.128c-0.029,0.043-0.061,0.085-0.085,0.13c-0.029,0.055-0.051,0.114-0.074,0.173  c-0.014,0.036-0.034,0.069-0.046,0.106l-4.002,12.808c-0.263,0.844,0.207,1.742,1.05,2.006c0.159,0.05,0.319,0.073,0.479,0.073  c0.682,0,1.313-0.439,1.527-1.124l0.744-2.379h3.462l0.744,2.379c0.214,0.685,0.846,1.124,1.527,1.124  c0.159,0,0.319-0.024,0.479-0.073c0.844-0.264,1.314-1.162,1.05-2.006L45.224,40.717z M42.965,48.9l0.73-2.337l0.73,2.337H42.965z   M81.672,40.717c-0.012-0.037-0.031-0.07-0.045-0.106c-0.023-0.059-0.045-0.119-0.074-0.174c-0.024-0.045-0.054-0.085-0.082-0.126  c-0.03-0.045-0.058-0.092-0.092-0.133c-0.029-0.036-0.064-0.067-0.096-0.099c-0.041-0.042-0.081-0.086-0.127-0.123  c-0.031-0.025-0.068-0.046-0.101-0.069c-0.052-0.036-0.103-0.074-0.158-0.103c-0.041-0.022-0.086-0.037-0.13-0.056  c-0.048-0.02-0.093-0.046-0.145-0.062c-0.004-0.002-0.009-0.002-0.014-0.003c-0.048-0.014-0.096-0.02-0.144-0.029  c-0.055-0.012-0.109-0.028-0.166-0.033c-0.002,0-0.005,0-0.008,0c-0.1-0.009-0.202-0.01-0.305,0.001  c-0.015,0.001-0.029,0.007-0.045,0.009c-0.087,0.011-0.176,0.027-0.263,0.054c-0.004,0.001-0.007,0.001-0.011,0.002  c-0.038,0.012-0.071,0.031-0.108,0.046c-0.058,0.022-0.116,0.043-0.17,0.072c-0.048,0.026-0.091,0.059-0.136,0.089  c-0.041,0.028-0.084,0.053-0.123,0.085c-0.04,0.032-0.075,0.072-0.112,0.109c-0.037,0.037-0.076,0.072-0.109,0.112  c-0.031,0.038-0.057,0.081-0.084,0.122c-0.031,0.045-0.064,0.089-0.09,0.137c-0.029,0.053-0.049,0.112-0.072,0.169  c-0.015,0.037-0.035,0.07-0.047,0.11l-4.002,12.808c-0.263,0.844,0.207,1.742,1.05,2.006c0.158,0.05,0.32,0.073,0.479,0.073  c0.681,0,1.313-0.439,1.527-1.124l0.744-2.379h3.462l0.743,2.379c0.215,0.685,0.846,1.124,1.528,1.124  c0.158,0,0.319-0.024,0.479-0.073c0.843-0.264,1.314-1.162,1.05-2.006L81.672,40.717z M79.414,48.9l0.73-2.337l0.73,2.337H79.414z   M72.69,49.199c0,0.591-0.324,1.102-0.801,1.379v1.023c0,0.111-0.024,0.215-0.032,0.323c-0.168,2.054-1.874,3.68-3.97,3.68h-0.801  c-2.648,0-4.803-2.154-4.803-4.803v-6.404c0-2.648,2.155-4.803,4.803-4.803c2.649,0,4.803,2.154,4.803,4.803  c0,0.884-0.717,1.601-1.601,1.601c-0.884,0-1.601-0.717-1.601-1.601c0-0.883-0.718-1.601-1.601-1.601  c-0.883,0-1.601,0.718-1.601,1.601V50.8c0,0.883,0.718,1.601,1.601,1.601h0.801c0.442,0,0.8-0.359,0.8-0.8V50.8  c-0.884,0-1.601-0.717-1.601-1.601c0-0.884,0.717-1.601,1.601-1.601h1.601h0.801C71.972,47.599,72.69,48.316,72.69,49.199z"/></svg>